<svg width="35" height="35" viewBox="0 0 35 35" fill="none" xmlns="http://www.w3.org/2000/svg">
        <path d="M11.0278 15.7494C10.3604 11.4169 12.1164 6.27735 16.0756 2.31477C16.9316 1.45603 17.8672 0.680943 18.8699 0L4.57253 0C3.38008 0 2.23648 0.474763 1.3933 1.31985C0.550112 2.16493 0.076416 3.31111 0.076416 4.50624V23.8128L10.7705 15.3832C10.8619 15.5065 10.9457 15.6261 11.0278 15.7494Z" fill="#F7EFF5"/>
        <path d="M20.5512 24.0762L16.2173 34.0023H29.5118C30.7042 34.0023 31.8478 33.5275 32.691 32.6824C33.5342 31.8374 34.0079 30.6912 34.0079 29.4961V17.3318C33.5715 17.8743 33.1067 18.3931 32.6154 18.8862C29.0606 22.4452 24.5627 24.2313 20.5512 24.0762Z" fill="#F7EFF5"/>
        <path d="M16.5286 23.1664C14.1967 23.9567 12.0157 25.9781 10.778 28.8086C10.0523 30.4386 9.73247 32.221 9.84596 34.0023H16.2173L20.5568 24.0763C19.1684 24.0341 17.8009 23.7252 16.5286 23.1664Z" fill="#F7EFF5"/>
        <path d="M7.94274 26.6096C10.6456 24.4798 12.0847 21.4644 11.9654 18.7779C11.5015 17.8223 11.1872 16.8008 11.0334 15.7494C10.9513 15.6261 10.8675 15.5028 10.7761 15.3758L0.076416 23.8128V28.8403C2.53138 29.2999 5.47287 28.5563 7.94274 26.6096Z" fill="#F7EFF5"/>
        <path d="M21.7067 16.0992C18.1593 19.7241 14.0406 15.0492 14.0079 15.0074C14.3148 16.6392 14.9863 18.1339 15.9471 19.3237C19.456 23.6328 25.9486 22.6502 30.4619 17.1128C30.6509 16.8811 30.8329 16.6451 31.0079 16.4049C23.8403 19.8041 21.7067 16.0992 21.7067 16.0992Z" fill="#F7EFF5"/>
        <path d="M20.5512 24.0762L15.0989 27.4634L16.2173 34.0023L23.3007 28.5843L20.5512 24.0762Z" fill="#F7EFF5"/>
        <path d="M0 23.7269L4.10093 15.3197H10.8115L7.45623 23.54L0 23.7269Z" fill="#F7EFF5"/>
</svg>
