<?xml version="1.0" standalone="no"?>
<!DOCTYPE svg PUBLIC "-//W3C//DTD SVG 20010904//EN"
 "http://www.w3.org/TR/2001/REC-SVG-20010904/DTD/svg10.dtd">
<svg version="1.0" xmlns="http://www.w3.org/2000/svg"
 width="700.000000pt" height="700.000000pt" viewBox="0 0 700.000000 700.000000"
 preserveAspectRatio="xMidYMid meet">
<metadata>
Created by potrace 1.14, written by Peter Selinger 2001-2017
</metadata>
<g transform="translate(0.000000,700.000000) scale(0.100000,-0.100000)"
fill="#000000" stroke="none">
<path d="M750 6984 c-285 -60 -513 -232 -637 -479 -40 -79 -79 -204 -89 -285
-4 -36 -8 -938 -8 -2005 -1 -1067 -5 -1946 -9 -1952 -5 -7 -4 -13 0 -13 5 0 8
-225 8 -501 0 -275 2 -505 5 -509 3 -5 24 -12 45 -15 22 -3 52 -8 68 -11 30
-6 295 -6 342 0 17 2 53 7 81 10 28 4 61 9 75 12 13 3 38 7 54 10 72 12 265
72 345 106 212 91 425 218 590 351 88 71 302 286 327 328 10 16 20 29 24 29 4
0 45 57 92 127 217 325 320 630 331 971 2 66 -2 82 -45 187 -59 142 -99 272
-128 420 -16 80 -19 107 -37 270 -10 103 -5 339 10 475 15 121 20 157 30 200
3 14 8 36 10 50 63 363 281 875 513 1208 25 37 56 80 67 97 23 32 156 202 190
243 126 149 315 336 471 465 106 88 103 86 204 159 l94 68 -1479 -1 c-1217 -1
-1490 -3 -1544 -15z"/>
<path d="M2810 3968 c0 -25 24 -121 52 -208 73 -230 166 -412 301 -590 69 -92
239 -255 330 -318 75 -52 267 -156 267 -145 0 3 6 1 13 -5 16 -13 162 -57 262
-78 93 -19 387 -28 480 -13 33 5 74 11 90 14 39 6 73 13 93 19 9 3 28 7 42 10
85 15 310 100 435 164 308 158 645 430 870 703 66 80 105 129 130 163 l29 39
-39 -21 c-69 -34 -255 -108 -380 -151 -144 -48 -305 -86 -446 -104 -99 -13
-346 -15 -399 -2 -14 3 -38 8 -55 11 -206 37 -421 156 -516 286 l-27 39 -49
-46 c-270 -257 -631 -298 -996 -114 -147 74 -307 190 -429 311 -46 45 -58 53
-58 36z"/>
<path d="M6784 3512 c-15 -22 -166 -191 -240 -267 -328 -337 -739 -622 -1159
-805 -228 -99 -577 -201 -770 -225 -27 -4 -61 -8 -75 -11 -134 -24 -487 -23
-670 1 -149 21 -389 87 -524 145 -40 17 -43 17 -91 -2 -168 -65 -331 -161
-486 -286 -94 -76 -248 -236 -326 -338 -145 -192 -215 -318 -339 -609 -24 -57
-83 -270 -98 -355 -36 -202 -45 -323 -37 -530 l1 -30 2013 0 c1960 1 2014 1
2102 20 174 38 314 113 440 235 45 44 95 100 110 125 15 25 31 47 34 50 22 17
95 199 106 262 3 17 8 34 10 38 3 4 7 36 10 71 7 69 9 2518 3 2524 -2 2 -9 -4
-14 -13z"/>
</g>
</svg>
